# xmcd
#
# Track frame offsets:
#	150
#	18427
#	52564
#	69067
#	96395
#	115292
#	136435
#	153082
#	167395
#	186047
#	223870
#	235635
#	262547
#	282952
#
# Disc length: 4034 seconds
#
# Revision: 1
# Processed by: cddbd v1.4PL0 Copyright (c) Steve Scherf et al.
# Submitted via: audiograbber 1.80
#
DISCID=aa0fc00e
DTITLE=Double Brown - 12 Bars And More
DYEAR=1900
DGENRE=
TTITLE0=Body and Fender Man
TTITLE1=Ain't Nothing You Can Do
TTITLE2=I've Got The Blues
TTITLE3=The Gift
TTITLE4=Full-Time Lover
TTITLE5=Live. Love And Be Friends
TTITLE6=The Well
TTITLE7=You Gotta Move
TTITLE8=Black Rat
TTITLE9=Let's Go Get Stoned
TTITLE10=Going Dow
TTITLE11=Going Down Under
TTITLE12=Hard Headed Woman
TTITLE13=Sassy Mama
EXTD=
EXTT0=
EXTT1=
EXTT2=
EXTT3=
EXTT4=
EXTT5=
EXTT6=
EXTT7=
EXTT8=
EXTT9=
EXTT10=
EXTT11=
EXTT12=
EXTT13=
PLAYORDER=
